<?xml version="1.0" encoding="UTF-8" standalone="no"?>
<!DOCTYPE svg PUBLIC "-//W3C//DTD SVG 1.1//EN"
 "http://www.w3.org/Graphics/SVG/1.1/DTD/svg11.dtd">
<!-- Generated by graphviz version 13.0.0 (20250608.1624)
 -->
<!-- Pages: 1 -->
<svg width="1800pt" height="4039pt"
 viewBox="0.00 0.00 1800.00 4039.00" xmlns="http://www.w3.org/2000/svg" xmlns:xlink="http://www.w3.org/1999/xlink">
<g id="graph0" class="graph" transform="scale(1.13556 1.13556) rotate(0) translate(4 3552.53)">
<polygon fill="white" stroke="none" points="-4,4 -4,-3552.53 1581.13,-3552.53 1581.13,4 -4,4"/>
<!-- Proto&#45;Indo&#45;European -->
<g id="node1" class="node">
<title>Proto&#45;Indo&#45;European</title>
<path fill="#1a252f" stroke="black" stroke-width="2" d="M362.5,-1502.64C362.5,-1502.64 12,-1502.64 12,-1502.64 6,-1502.64 0,-1496.64 0,-1490.64 0,-1490.64 0,-1464.24 0,-1464.24 0,-1458.24 6,-1452.24 12,-1452.24 12,-1452.24 362.5,-1452.24 362.5,-1452.24 368.5,-1452.24 374.5,-1458.24 374.5,-1464.24 374.5,-1464.24 374.5,-1490.64 374.5,-1490.64 374.5,-1496.64 368.5,-1502.64 362.5,-1502.64"/>
<text xml:space="preserve" text-anchor="middle" x="187.25" y="-1463.87" font-family="Arial Black" font-size="36.00" fill="white">Proto&#45;Indo&#45;European</text>
</g>
<!-- Anatolian -->
<g id="node2" class="node">
<title>Anatolian</title>
<path fill="#d35400" stroke="black" stroke-width="2" d="M634.65,-3417.18C634.65,-3417.18 485.85,-3417.18 485.85,-3417.18 479.85,-3417.18 473.85,-3411.18 473.85,-3405.18 473.85,-3405.18 473.85,-3384.43 473.85,-3384.43 473.85,-3378.43 479.85,-3372.43 485.85,-3372.43 485.85,-3372.43 634.65,-3372.43 634.65,-3372.43 640.65,-3372.43 646.65,-3378.43 646.65,-3384.43 646.65,-3384.43 646.65,-3405.18 646.65,-3405.18 646.65,-3411.18 640.65,-3417.18 634.65,-3417.18"/>
<text xml:space="preserve" text-anchor="middle" x="560.25" y="-3382.78" font-family="Arial Bold" font-size="32.00" fill="white">Anatolian</text>
</g>
<!-- Proto&#45;Indo&#45;European&#45;&gt;Anatolian -->
<g id="edge1" class="edge">
<title>Proto&#45;Indo&#45;European&#45;&gt;Anatolian</title>
<path fill="none" stroke="#2c3e50" stroke-width="3" d="M192.24,-1503.1C232.59,-1710.51 505.2,-3111.81 553.08,-3357.94"/>
<polygon fill="#2c3e50" stroke="#2c3e50" stroke-width="3" points="549.63,-3358.55 554.98,-3367.7 556.5,-3357.22 549.63,-3358.55"/>
</g>
<!-- Tocharian -->
<g id="node3" class="node">
<title>Tocharian</title>
<path fill="#9b59b6" stroke="black" stroke-width="2" d="M634.65,-3152.65C634.65,-3152.65 485.85,-3152.65 485.85,-3152.65 479.85,-3152.65 473.85,-3146.65 473.85,-3140.65 473.85,-3140.65 473.85,-3119.9 473.85,-3119.9 473.85,-3113.9 479.85,-3107.9 485.85,-3107.9 485.85,-3107.9 634.65,-3107.9 634.65,-3107.9 640.65,-3107.9 646.65,-3113.9 646.65,-3119.9 646.65,-3119.9 646.65,-3140.65 646.65,-3140.65 646.65,-3146.65 640.65,-3152.65 634.65,-3152.65"/>
<text xml:space="preserve" text-anchor="middle" x="560.25" y="-3118.25" font-family="Arial Bold" font-size="32.00" fill="white">Tocharian</text>
</g>
<!-- Proto&#45;Indo&#45;European&#45;&gt;Tocharian -->
<g id="edge2" class="edge">
<title>Proto&#45;Indo&#45;European&#45;&gt;Tocharian</title>
<path fill="none" stroke="#2c3e50" stroke-width="3" d="M193.03,-1503.07C235.72,-1692.22 501.62,-2870.47 552.01,-3093.77"/>
<polygon fill="#2c3e50" stroke="#2c3e50" stroke-width="3" points="548.52,-3094.21 554.14,-3103.2 555.35,-3092.67 548.52,-3094.21"/>
</g>
<!-- Italic -->
<g id="node4" class="node">
<title>Italic</title>
<path fill="#8e44ad" stroke="black" stroke-width="2" d="M634.65,-2854.8C634.65,-2854.8 485.85,-2854.8 485.85,-2854.8 479.85,-2854.8 473.85,-2848.8 473.85,-2842.8 473.85,-2842.8 473.85,-2822.05 473.85,-2822.05 473.85,-2816.05 479.85,-2810.05 485.85,-2810.05 485.85,-2810.05 634.65,-2810.05 634.65,-2810.05 640.65,-2810.05 646.65,-2816.05 646.65,-2822.05 646.65,-2822.05 646.65,-2842.8 646.65,-2842.8 646.65,-2848.8 640.65,-2854.8 634.65,-2854.8"/>
<text xml:space="preserve" text-anchor="middle" x="560.25" y="-2820.4" font-family="Arial Bold" font-size="32.00" fill="white">Italic</text>
</g>
<!-- Proto&#45;Indo&#45;European&#45;&gt;Italic -->
<g id="edge3" class="edge">
<title>Proto&#45;Indo&#45;European&#45;&gt;Italic</title>
<path fill="none" stroke="#2c3e50" stroke-width="3" d="M194.29,-1503C240.12,-1669.51 496.06,-2599.26 550.19,-2795.89"/>
<polygon fill="#2c3e50" stroke="#2c3e50" stroke-width="3" points="546.77,-2796.65 552.8,-2805.36 553.52,-2794.79 546.77,-2796.65"/>
</g>
<!-- Celtic -->
<g id="node5" class="node">
<title>Celtic</title>
<path fill="#27ae60" stroke="black" stroke-width="2" d="M634.65,-2491.32C634.65,-2491.32 485.85,-2491.32 485.85,-2491.32 479.85,-2491.32 473.85,-2485.32 473.85,-2479.32 473.85,-2479.32 473.85,-2458.57 473.85,-2458.57 473.85,-2452.57 479.85,-2446.57 485.85,-2446.57 485.85,-2446.57 634.65,-2446.57 634.65,-2446.57 640.65,-2446.57 646.65,-2452.57 646.65,-2458.57 646.65,-2458.57 646.65,-2479.32 646.65,-2479.32 646.65,-2485.32 640.65,-2491.32 634.65,-2491.32"/>
<text xml:space="preserve" text-anchor="middle" x="560.25" y="-2456.92" font-family="Arial Bold" font-size="32.00" fill="white">Celtic</text>
</g>
<!-- Proto&#45;Indo&#45;European&#45;&gt;Celtic -->
<g id="edge4" class="edge">
<title>Proto&#45;Indo&#45;European&#45;&gt;Celtic</title>
<path fill="none" stroke="#2c3e50" stroke-width="3" d="M196.85,-1502.95C247.82,-1638.45 486.83,-2273.76 546.65,-2432.78"/>
<polygon fill="#2c3e50" stroke="#2c3e50" stroke-width="3" points="543.32,-2433.88 550.12,-2442.01 549.87,-2431.41 543.32,-2433.88"/>
</g>
<!-- Germanic -->
<g id="node6" class="node">
<title>Germanic</title>
<path fill="#e74c3c" stroke="black" stroke-width="2" d="M634.65,-1697.71C634.65,-1697.71 485.85,-1697.71 485.85,-1697.71 479.85,-1697.71 473.85,-1691.71 473.85,-1685.71 473.85,-1685.71 473.85,-1664.96 473.85,-1664.96 473.85,-1658.96 479.85,-1652.96 485.85,-1652.96 485.85,-1652.96 634.65,-1652.96 634.65,-1652.96 640.65,-1652.96 646.65,-1658.96 646.65,-1664.96 646.65,-1664.96 646.65,-1685.71 646.65,-1685.71 646.65,-1691.71 640.65,-1697.71 634.65,-1697.71"/>
<text xml:space="preserve" text-anchor="middle" x="560.25" y="-1663.31" font-family="Arial Bold" font-size="32.00" fill="white">Germanic</text>
</g>
<!-- Proto&#45;Indo&#45;European&#45;&gt;Germanic -->
<g id="edge5" class="edge">
<title>Proto&#45;Indo&#45;European&#45;&gt;Germanic</title>
<path fill="none" stroke="#2c3e50" stroke-width="3" d="M235.63,-1503.11C304.81,-1539.81 431.66,-1607.11 504.62,-1645.82"/>
<polygon fill="#2c3e50" stroke="#2c3e50" stroke-width="3" points="502.67,-1648.75 513.15,-1650.35 505.95,-1642.57 502.67,-1648.75"/>
</g>
<!-- Balto&#45;Slavic -->
<g id="node7" class="node">
<title>Balto&#45;Slavic</title>
<path fill="#3498db" stroke="black" stroke-width="2" d="M648.13,-1300.91C648.13,-1300.91 472.38,-1300.91 472.38,-1300.91 466.38,-1300.91 460.38,-1294.91 460.38,-1288.91 460.38,-1288.91 460.38,-1268.16 460.38,-1268.16 460.38,-1262.16 466.38,-1256.16 472.38,-1256.16 472.38,-1256.16 648.13,-1256.16 648.13,-1256.16 654.13,-1256.16 660.13,-1262.16 660.13,-1268.16 660.13,-1268.16 660.13,-1288.91 660.13,-1288.91 660.13,-1294.91 654.13,-1300.91 648.13,-1300.91"/>
<text xml:space="preserve" text-anchor="middle" x="560.25" y="-1266.51" font-family="Arial Bold" font-size="32.00" fill="white">Balto&#45;Slavic</text>
</g>
<!-- Proto&#45;Indo&#45;European&#45;&gt;Balto&#45;Slavic -->
<g id="edge6" class="edge">
<title>Proto&#45;Indo&#45;European&#45;&gt;Balto&#45;Slavic</title>
<path fill="none" stroke="#2c3e50" stroke-width="3" d="M235.25,-1451.85C304.48,-1414.93 432.06,-1346.9 505.08,-1307.96"/>
<polygon fill="#2c3e50" stroke="#2c3e50" stroke-width="3" points="506.44,-1311.2 513.62,-1303.41 503.15,-1305.02 506.44,-1311.2"/>
</g>
<!-- Indo&#45;Iranian -->
<g id="node8" class="node">
<title>Indo&#45;Iranian</title>
<path fill="#f39c12" stroke="black" stroke-width="2" d="M648.13,-639.54C648.13,-639.54 472.38,-639.54 472.38,-639.54 466.38,-639.54 460.38,-633.54 460.38,-627.54 460.38,-627.54 460.38,-606.79 460.38,-606.79 460.38,-600.79 466.38,-594.79 472.38,-594.79 472.38,-594.79 648.13,-594.79 648.13,-594.79 654.13,-594.79 660.13,-600.79 660.13,-606.79 660.13,-606.79 660.13,-627.54 660.13,-627.54 660.13,-633.54 654.13,-639.54 648.13,-639.54"/>
<text xml:space="preserve" text-anchor="middle" x="560.25" y="-605.14" font-family="Arial Bold" font-size="32.00" fill="white">Indo&#45;Iranian</text>
</g>
<!-- Proto&#45;Indo&#45;European&#45;&gt;Indo&#45;Iranian -->
<g id="edge7" class="edge">
<title>Proto&#45;Indo&#45;European&#45;&gt;Indo&#45;Iranian</title>
<path fill="none" stroke="#2c3e50" stroke-width="3" d="M198.21,-1452.16C251.37,-1329.55 482.35,-796.84 544.69,-653.04"/>
<polygon fill="#2c3e50" stroke="#2c3e50" stroke-width="3" points="547.77,-654.74 548.54,-644.17 541.35,-651.95 547.77,-654.74"/>
</g>
<!-- Armenian -->
<g id="node9" class="node">
<title>Armenian</title>
<path fill="#e67e22" stroke="black" stroke-width="2" d="M634.65,-503.23C634.65,-503.23 485.85,-503.23 485.85,-503.23 479.85,-503.23 473.85,-497.23 473.85,-491.23 473.85,-491.23 473.85,-470.48 473.85,-470.48 473.85,-464.48 479.85,-458.48 485.85,-458.48 485.85,-458.48 634.65,-458.48 634.65,-458.48 640.65,-458.48 646.65,-464.48 646.65,-470.48 646.65,-470.48 646.65,-491.23 646.65,-491.23 646.65,-497.23 640.65,-503.23 634.65,-503.23"/>
<text xml:space="preserve" text-anchor="middle" x="560.25" y="-468.83" font-family="Arial Bold" font-size="32.00" fill="white">Armenian</text>
</g>
<!-- Proto&#45;Indo&#45;European&#45;&gt;Armenian -->
<g id="edge8" class="edge">
<title>Proto&#45;Indo&#45;European&#45;&gt;Armenian</title>
<path fill="none" stroke="#2c3e50" stroke-width="3" d="M196.85,-1451.81C247.82,-1315.61 486.83,-677.03 546.65,-517.2"/>
<polygon fill="#2c3e50" stroke="#2c3e50" stroke-width="3" points="549.9,-518.5 550.12,-507.91 543.34,-516.05 549.9,-518.5"/>
</g>
<!-- Greek -->
<g id="node10" class="node">
<title>Greek</title>
<path fill="#16a085" stroke="black" stroke-width="2" d="M634.65,-305.34C634.65,-305.34 485.85,-305.34 485.85,-305.34 479.85,-305.34 473.85,-299.34 473.85,-293.34 473.85,-293.34 473.85,-272.59 473.85,-272.59 473.85,-266.59 479.85,-260.59 485.85,-260.59 485.85,-260.59 634.65,-260.59 634.65,-260.59 640.65,-260.59 646.65,-266.59 646.65,-272.59 646.65,-272.59 646.65,-293.34 646.65,-293.34 646.65,-299.34 640.65,-305.34 634.65,-305.34"/>
<text xml:space="preserve" text-anchor="middle" x="560.25" y="-270.94" font-family="Arial Bold" font-size="32.00" fill="white">Greek</text>
</g>
<!-- Proto&#45;Indo&#45;European&#45;&gt;Greek -->
<g id="edge9" class="edge">
<title>Proto&#45;Indo&#45;European&#45;&gt;Greek</title>
<path fill="none" stroke="#2c3e50" stroke-width="3" d="M195.21,-1451.94C243.07,-1298.69 492.27,-500.64 548.83,-319.54"/>
<polygon fill="#2c3e50" stroke="#2c3e50" stroke-width="3" points="552.14,-320.68 551.78,-310.09 545.46,-318.59 552.14,-320.68"/>
</g>
<!-- Albanian -->
<g id="node11" class="node">
<title>Albanian</title>
<path fill="#95a5a6" stroke="black" stroke-width="2" d="M634.65,-169.03C634.65,-169.03 485.85,-169.03 485.85,-169.03 479.85,-169.03 473.85,-163.03 473.85,-157.03 473.85,-157.03 473.85,-136.28 473.85,-136.28 473.85,-130.28 479.85,-124.28 485.85,-124.28 485.85,-124.28 634.65,-124.28 634.65,-124.28 640.65,-124.28 646.65,-130.28 646.65,-136.28 646.65,-136.28 646.65,-157.03 646.65,-157.03 646.65,-163.03 640.65,-169.03 634.65,-169.03"/>
<text xml:space="preserve" text-anchor="middle" x="560.25" y="-134.63" font-family="Arial Bold" font-size="32.00" fill="white">Albanian</text>
</g>
<!-- Proto&#45;Indo&#45;European&#45;&gt;Albanian -->
<g id="edge10" class="edge">
<title>Proto&#45;Indo&#45;European&#45;&gt;Albanian</title>
<path fill="none" stroke="#2c3e50" stroke-width="3" d="M194.45,-1451.75C240.67,-1286.87 495.39,-378.05 549.96,-183.37"/>
<polygon fill="#2c3e50" stroke="#2c3e50" stroke-width="3" points="553.32,-184.34 552.65,-173.77 546.58,-182.45 553.32,-184.34"/>
</g>
<!-- Hittite -->
<g id="node12" class="node">
<title>Hittite</title>
<path fill="#5d6d7e" stroke="black" d="M926.45,-3548.33C926.45,-3548.33 792.05,-3548.33 792.05,-3548.33 786.05,-3548.33 780.05,-3542.33 780.05,-3536.33 780.05,-3536.33 780.05,-3517.83 780.05,-3517.83 780.05,-3511.83 786.05,-3505.83 792.05,-3505.83 792.05,-3505.83 926.45,-3505.83 926.45,-3505.83 932.45,-3505.83 938.45,-3511.83 938.45,-3517.83 938.45,-3517.83 938.45,-3536.33 938.45,-3536.33 938.45,-3542.33 932.45,-3548.33 926.45,-3548.33"/>
<text xml:space="preserve" text-anchor="middle" x="859.25" y="-3515.83" font-family="Arial" font-size="30.00" fill="white">Hittite</text>
</g>
<!-- Anatolian&#45;&gt;Hittite -->
<g id="edge11" class="edge">
<title>Anatolian&#45;&gt;Hittite</title>
<path fill="none" stroke="#2c3e50" stroke-width="3" d="M611.65,-3417.55C663.17,-3440.34 742.52,-3475.44 797.44,-3499.74"/>
<polygon fill="#2c3e50" stroke="#2c3e50" stroke-width="3" points="795.79,-3502.83 806.35,-3503.67 798.62,-3496.43 795.79,-3502.83"/>
</g>
<!-- Luwian -->
<g id="node13" class="node">
<title>Luwian</title>
<path fill="#5d6d7e" stroke="black" d="M926.45,-3416.06C926.45,-3416.06 792.05,-3416.06 792.05,-3416.06 786.05,-3416.06 780.05,-3410.06 780.05,-3404.06 780.05,-3404.06 780.05,-3385.56 780.05,-3385.56 780.05,-3379.56 786.05,-3373.56 792.05,-3373.56 792.05,-3373.56 926.45,-3373.56 926.45,-3373.56 932.45,-3373.56 938.45,-3379.56 938.45,-3385.56 938.45,-3385.56 938.45,-3404.06 938.45,-3404.06 938.45,-3410.06 932.45,-3416.06 926.45,-3416.06"/>
<text xml:space="preserve" text-anchor="middle" x="859.25" y="-3383.56" font-family="Arial" font-size="30.00" fill="white">Luwian</text>
</g>
<!-- Anatolian&#45;&gt;Luwian -->
<g id="edge12" class="edge">
<title>Anatolian&#45;&gt;Luwian</title>
<path fill="none" stroke="#2c3e50" stroke-width="3" d="M647.14,-3394.81C684.13,-3394.81 727.37,-3394.81 765.12,-3394.81"/>
<polygon fill="#2c3e50" stroke="#2c3e50" stroke-width="3" points="765.02,-3398.31 775.02,-3394.81 765.02,-3391.31 765.02,-3398.31"/>
</g>
<!-- Tocharian A -->
<g id="node14" class="node">
<title>Tocharian A</title>
<path fill="#5d6d7e" stroke="black" d="M933.25,-3283.79C933.25,-3283.79 785.25,-3283.79 785.25,-3283.79 779.25,-3283.79 773.25,-3277.79 773.25,-3271.79 773.25,-3271.79 773.25,-3253.29 773.25,-3253.29 773.25,-3247.29 779.25,-3241.29 785.25,-3241.29 785.25,-3241.29 933.25,-3241.29 933.25,-3241.29 939.25,-3241.29 945.25,-3247.29 945.25,-3253.29 945.25,-3253.29 945.25,-3271.79 945.25,-3271.79 945.25,-3277.79 939.25,-3283.79 933.25,-3283.79"/>
<text xml:space="preserve" text-anchor="middle" x="859.25" y="-3251.29" font-family="Arial" font-size="30.00" fill="white">Tocharian A</text>
</g>
<!-- Tocharian&#45;&gt;Tocharian A -->
<g id="edge13" class="edge">
<title>Tocharian&#45;&gt;Tocharian A</title>
<path fill="none" stroke="#2c3e50" stroke-width="3" d="M611.65,-3153.01C663.17,-3175.8 742.52,-3210.9 797.44,-3235.2"/>
<polygon fill="#2c3e50" stroke="#2c3e50" stroke-width="3" points="795.79,-3238.3 806.35,-3239.14 798.62,-3231.89 795.79,-3238.3"/>
</g>
<!-- Tocharian B -->
<g id="node15" class="node">
<title>Tocharian B</title>
<path fill="#5d6d7e" stroke="black" d="M934,-3151.53C934,-3151.53 784.5,-3151.53 784.5,-3151.53 778.5,-3151.53 772.5,-3145.53 772.5,-3139.53 772.5,-3139.53 772.5,-3121.03 772.5,-3121.03 772.5,-3115.03 778.5,-3109.03 784.5,-3109.03 784.5,-3109.03 934,-3109.03 934,-3109.03 940,-3109.03 946,-3115.03 946,-3121.03 946,-3121.03 946,-3139.53 946,-3139.53 946,-3145.53 940,-3151.53 934,-3151.53"/>
<text xml:space="preserve" text-anchor="middle" x="859.25" y="-3119.03" font-family="Arial" font-size="30.00" fill="white">Tocharian B</text>
</g>
<!-- Tocharian&#45;&gt;Tocharian B -->
<g id="edge14" class="edge">
<title>Tocharian&#45;&gt;Tocharian B</title>
<path fill="none" stroke="#2c3e50" stroke-width="3" d="M647.14,-3130.28C681.84,-3130.28 722.04,-3130.28 758.05,-3130.28"/>
<polygon fill="#2c3e50" stroke="#2c3e50" stroke-width="3" points="757.61,-3133.78 767.61,-3130.28 757.61,-3126.78 757.61,-3133.78"/>
</g>
<!-- Latin -->
<g id="node16" class="node">
<title>Latin</title>
<path fill="#5d6d7e" stroke="black" d="M926.45,-3019.26C926.45,-3019.26 792.05,-3019.26 792.05,-3019.26 786.05,-3019.26 780.05,-3013.26 780.05,-3007.26 780.05,-3007.26 780.05,-2988.76 780.05,-2988.76 780.05,-2982.76 786.05,-2976.76 792.05,-2976.76 792.05,-2976.76 926.45,-2976.76 926.45,-2976.76 932.45,-2976.76 938.45,-2982.76 938.45,-2988.76 938.45,-2988.76 938.45,-3007.26 938.45,-3007.26 938.45,-3013.26 932.45,-3019.26 926.45,-3019.26"/>
<text xml:space="preserve" text-anchor="middle" x="859.25" y="-2986.76" font-family="Arial" font-size="30.00" fill="white">Latin</text>
</g>
<!-- Italic&#45;&gt;Latin -->
<g id="edge15" class="edge">
<title>Italic&#45;&gt;Latin</title>
<path fill="none" stroke="#2c3e50" stroke-width="3" d="M601.51,-2855.27C655.28,-2885.05 749.3,-2937.12 807.7,-2969.46"/>
<polygon fill="#2c3e50" stroke="#2c3e50" stroke-width="3" points="805.89,-2972.46 816.34,-2974.24 809.29,-2966.34 805.89,-2972.46"/>
</g>
<!-- Goidelic -->
<g id="node17" class="node">
<title>Goidelic</title>
<path fill="#5d6d7e" stroke="black" d="M926.45,-2689.1C926.45,-2689.1 792.05,-2689.1 792.05,-2689.1 786.05,-2689.1 780.05,-2683.1 780.05,-2677.1 780.05,-2677.1 780.05,-2658.6 780.05,-2658.6 780.05,-2652.6 786.05,-2646.6 792.05,-2646.6 792.05,-2646.6 926.45,-2646.6 926.45,-2646.6 932.45,-2646.6 938.45,-2652.6 938.45,-2658.6 938.45,-2658.6 938.45,-2677.1 938.45,-2677.1 938.45,-2683.1 932.45,-2689.1 926.45,-2689.1"/>
<text xml:space="preserve" text-anchor="middle" x="859.25" y="-2656.6" font-family="Arial" font-size="30.00" fill="white">Goidelic</text>
</g>
<!-- Celtic&#45;&gt;Goidelic -->
<g id="edge16" class="edge">
<title>Celtic&#45;&gt;Goidelic</title>
<path fill="none" stroke="#2c3e50" stroke-width="3" d="M594.55,-2491.76C648.83,-2527.86 754.5,-2598.16 814.61,-2638.15"/>
<polygon fill="#2c3e50" stroke="#2c3e50" stroke-width="3" points="812.67,-2641.06 822.93,-2643.69 816.55,-2635.23 812.67,-2641.06"/>
</g>
<!-- Brittonic -->
<g id="node18" class="node">
<title>Brittonic</title>
<path fill="#5d6d7e" stroke="black" d="M926.45,-2490.19C926.45,-2490.19 792.05,-2490.19 792.05,-2490.19 786.05,-2490.19 780.05,-2484.19 780.05,-2478.19 780.05,-2478.19 780.05,-2459.69 780.05,-2459.69 780.05,-2453.69 786.05,-2447.69 792.05,-2447.69 792.05,-2447.69 926.45,-2447.69 926.45,-2447.69 932.45,-2447.69 938.45,-2453.69 938.45,-2459.69 938.45,-2459.69 938.45,-2478.19 938.45,-2478.19 938.45,-2484.19 932.45,-2490.19 926.45,-2490.19"/>
<text xml:space="preserve" text-anchor="middle" x="859.25" y="-2457.69" font-family="Arial" font-size="30.00" fill="white">Brittonic</text>
</g>
<!-- Celtic&#45;&gt;Brittonic -->
<g id="edge17" class="edge">
<title>Celtic&#45;&gt;Brittonic</title>
<path fill="none" stroke="#2c3e50" stroke-width="3" d="M647.14,-2468.94C684.13,-2468.94 727.37,-2468.94 765.12,-2468.94"/>
<polygon fill="#2c3e50" stroke="#2c3e50" stroke-width="3" points="765.02,-2472.44 775.02,-2468.94 765.02,-2465.44 765.02,-2472.44"/>
</g>
<!-- West Germanic -->
<g id="node19" class="node">
<title>West Germanic</title>
<path fill="#5d6d7e" stroke="black" d="M957.63,-2093.39C957.63,-2093.39 760.87,-2093.39 760.87,-2093.39 754.87,-2093.39 748.87,-2087.39 748.87,-2081.39 748.87,-2081.39 748.87,-2062.89 748.87,-2062.89 748.87,-2056.89 754.87,-2050.89 760.87,-2050.89 760.87,-2050.89 957.63,-2050.89 957.63,-2050.89 963.63,-2050.89 969.63,-2056.89 969.63,-2062.89 969.63,-2062.89 969.63,-2081.39 969.63,-2081.39 969.63,-2087.39 963.63,-2093.39 957.63,-2093.39"/>
<text xml:space="preserve" text-anchor="middle" x="859.25" y="-2060.89" font-family="Arial" font-size="30.00" fill="white">West Germanic</text>
</g>
<!-- Germanic&#45;&gt;West Germanic -->
<g id="edge18" class="edge">
<title>Germanic&#45;&gt;West Germanic</title>
<path fill="none" stroke="#2c3e50" stroke-width="3" d="M577.4,-1698.1C627.7,-1764.84 774.99,-1960.32 834.19,-2038.88"/>
<polygon fill="#2c3e50" stroke="#2c3e50" stroke-width="3" points="831.36,-2040.94 840.17,-2046.82 836.95,-2036.73 831.36,-2040.94"/>
</g>
<!-- North Germanic -->
<g id="node20" class="node">
<title>North Germanic</title>
<path fill="#5d6d7e" stroke="black" d="M960.25,-1696.59C960.25,-1696.59 758.25,-1696.59 758.25,-1696.59 752.25,-1696.59 746.25,-1690.59 746.25,-1684.59 746.25,-1684.59 746.25,-1666.09 746.25,-1666.09 746.25,-1660.09 752.25,-1654.09 758.25,-1654.09 758.25,-1654.09 960.25,-1654.09 960.25,-1654.09 966.25,-1654.09 972.25,-1660.09 972.25,-1666.09 972.25,-1666.09 972.25,-1684.59 972.25,-1684.59 972.25,-1690.59 966.25,-1696.59 960.25,-1696.59"/>
<text xml:space="preserve" text-anchor="middle" x="859.25" y="-1664.09" font-family="Arial" font-size="30.00" fill="white">North Germanic</text>
</g>
<!-- Germanic&#45;&gt;North Germanic -->
<g id="edge19" class="edge">
<title>Germanic&#45;&gt;North Germanic</title>
<path fill="none" stroke="#2c3e50" stroke-width="3" d="M647.14,-1675.34C673.54,-1675.34 703.12,-1675.34 731.62,-1675.34"/>
<polygon fill="#2c3e50" stroke="#2c3e50" stroke-width="3" points="731.41,-1678.84 741.41,-1675.34 731.41,-1671.84 731.41,-1678.84"/>
</g>
<!-- Baltic -->
<g id="node21" class="node">
<title>Baltic</title>
<path fill="#5d6d7e" stroke="black" d="M926.45,-1299.79C926.45,-1299.79 792.05,-1299.79 792.05,-1299.79 786.05,-1299.79 780.05,-1293.79 780.05,-1287.79 780.05,-1287.79 780.05,-1269.29 780.05,-1269.29 780.05,-1263.29 786.05,-1257.29 792.05,-1257.29 792.05,-1257.29 926.45,-1257.29 926.45,-1257.29 932.45,-1257.29 938.45,-1263.29 938.45,-1269.29 938.45,-1269.29 938.45,-1287.79 938.45,-1287.79 938.45,-1293.79 932.45,-1299.79 926.45,-1299.79"/>
<text xml:space="preserve" text-anchor="middle" x="859.25" y="-1267.29" font-family="Arial" font-size="30.00" fill="white">Baltic</text>
</g>
<!-- Balto&#45;Slavic&#45;&gt;Baltic -->
<g id="edge20" class="edge">
<title>Balto&#45;Slavic&#45;&gt;Baltic</title>
<path fill="none" stroke="#2c3e50" stroke-width="3" d="M660.23,-1278.54C694.09,-1278.54 731.78,-1278.54 765.17,-1278.54"/>
<polygon fill="#2c3e50" stroke="#2c3e50" stroke-width="3" points="765.15,-1282.04 775.15,-1278.54 765.15,-1275.04 765.15,-1282.04"/>
</g>
<!-- Slavic -->
<g id="node22" class="node">
<title>Slavic</title>
<path fill="#5d6d7e" stroke="black" d="M926.45,-1035.25C926.45,-1035.25 792.05,-1035.25 792.05,-1035.25 786.05,-1035.25 780.05,-1029.25 780.05,-1023.25 780.05,-1023.25 780.05,-1004.75 780.05,-1004.75 780.05,-998.75 786.05,-992.75 792.05,-992.75 792.05,-992.75 926.45,-992.75 926.45,-992.75 932.45,-992.75 938.45,-998.75 938.45,-1004.75 938.45,-1004.75 938.45,-1023.25 938.45,-1023.25 938.45,-1029.25 932.45,-1035.25 926.45,-1035.25"/>
<text xml:space="preserve" text-anchor="middle" x="859.25" y="-1002.75" font-family="Arial" font-size="30.00" fill="white">Slavic</text>
</g>
<!-- Balto&#45;Slavic&#45;&gt;Slavic -->
<g id="edge21" class="edge">
<title>Balto&#45;Slavic&#45;&gt;Slavic</title>
<path fill="none" stroke="#2c3e50" stroke-width="3" d="M586,-1255.75C639.61,-1208.33 763.26,-1098.93 824.12,-1045.09"/>
<polygon fill="#2c3e50" stroke="#2c3e50" stroke-width="3" points="826.15,-1047.96 831.32,-1038.72 821.51,-1042.72 826.15,-1047.96"/>
</g>
<!-- Indo&#45;Aryan -->
<g id="node23" class="node">
<title>Indo&#45;Aryan</title>
<path fill="#5d6d7e" stroke="black" d="M928,-638.41C928,-638.41 790.5,-638.41 790.5,-638.41 784.5,-638.41 778.5,-632.41 778.5,-626.41 778.5,-626.41 778.5,-607.91 778.5,-607.91 778.5,-601.91 784.5,-595.91 790.5,-595.91 790.5,-595.91 928,-595.91 928,-595.91 934,-595.91 940,-601.91 940,-607.91 940,-607.91 940,-626.41 940,-626.41 940,-632.41 934,-638.41 928,-638.41"/>
<text xml:space="preserve" text-anchor="middle" x="859.25" y="-605.91" font-family="Arial" font-size="30.00" fill="white">Indo&#45;Aryan</text>
</g>
<!-- Indo&#45;Iranian&#45;&gt;Indo&#45;Aryan -->
<g id="edge22" class="edge">
<title>Indo&#45;Iranian&#45;&gt;Indo&#45;Aryan</title>
<path fill="none" stroke="#2c3e50" stroke-width="3" d="M660.23,-617.16C693.65,-617.16 730.79,-617.16 763.86,-617.16"/>
<polygon fill="#2c3e50" stroke="#2c3e50" stroke-width="3" points="763.7,-620.66 773.7,-617.16 763.7,-613.66 763.7,-620.66"/>
</g>
<!-- Iranian -->
<g id="node24" class="node">
<title>Iranian</title>
<path fill="#5d6d7e" stroke="black" d="M926.45,-506.15C926.45,-506.15 792.05,-506.15 792.05,-506.15 786.05,-506.15 780.05,-500.15 780.05,-494.15 780.05,-494.15 780.05,-475.64 780.05,-475.64 780.05,-469.64 786.05,-463.64 792.05,-463.64 792.05,-463.64 926.45,-463.64 926.45,-463.64 932.45,-463.64 938.45,-469.64 938.45,-475.64 938.45,-475.64 938.45,-494.15 938.45,-494.15 938.45,-500.15 932.45,-506.15 926.45,-506.15"/>
<text xml:space="preserve" text-anchor="middle" x="859.25" y="-473.64" font-family="Arial" font-size="30.00" fill="white">Iranian</text>
</g>
<!-- Indo&#45;Iranian&#45;&gt;Iranian -->
<g id="edge23" class="edge">
<title>Indo&#45;Iranian&#45;&gt;Iranian</title>
<path fill="none" stroke="#2c3e50" stroke-width="3" d="M611.65,-594.42C663.17,-571.63 742.52,-536.53 797.44,-512.24"/>
<polygon fill="#2c3e50" stroke="#2c3e50" stroke-width="3" points="798.62,-515.54 806.35,-508.3 795.79,-509.14 798.62,-515.54"/>
</g>
<!-- Nuristani -->
<g id="node25" class="node">
<title>Nuristani</title>
<path fill="#5d6d7e" stroke="black" d="M926.45,-373.88C926.45,-373.88 792.05,-373.88 792.05,-373.88 786.05,-373.88 780.05,-367.88 780.05,-361.88 780.05,-361.88 780.05,-343.38 780.05,-343.38 780.05,-337.38 786.05,-331.38 792.05,-331.38 792.05,-331.38 926.45,-331.38 926.45,-331.38 932.45,-331.38 938.45,-337.38 938.45,-343.38 938.45,-343.38 938.45,-361.88 938.45,-361.88 938.45,-367.88 932.45,-373.88 926.45,-373.88"/>
<text xml:space="preserve" text-anchor="middle" x="859.25" y="-341.38" font-family="Arial" font-size="30.00" fill="white">Nuristani</text>
</g>
<!-- Indo&#45;Iranian&#45;&gt;Nuristani -->
<g id="edge24" class="edge">
<title>Indo&#45;Iranian&#45;&gt;Nuristani</title>
<path fill="none" stroke="#2c3e50" stroke-width="3" d="M586,-594.38C639.61,-546.95 763.26,-437.56 824.12,-383.71"/>
<polygon fill="#2c3e50" stroke="#2c3e50" stroke-width="3" points="826.15,-386.59 831.32,-377.34 821.51,-381.35 826.15,-386.59"/>
</g>
<!-- Ancient Greek -->
<g id="node26" class="node">
<title>Ancient Greek</title>
<path fill="#5d6d7e" stroke="black" d="M949.75,-241.61C949.75,-241.61 768.75,-241.61 768.75,-241.61 762.75,-241.61 756.75,-235.61 756.75,-229.61 756.75,-229.61 756.75,-211.11 756.75,-211.11 756.75,-205.11 762.75,-199.11 768.75,-199.11 768.75,-199.11 949.75,-199.11 949.75,-199.11 955.75,-199.11 961.75,-205.11 961.75,-211.11 961.75,-211.11 961.75,-229.61 961.75,-229.61 961.75,-235.61 955.75,-241.61 949.75,-241.61"/>
<text xml:space="preserve" text-anchor="middle" x="859.25" y="-209.11" font-family="Arial" font-size="30.00" fill="white">Ancient Greek</text>
</g>
<!-- Greek&#45;&gt;Ancient Greek -->
<g id="edge25" class="edge">
<title>Greek&#45;&gt;Ancient Greek</title>
<path fill="none" stroke="#2c3e50" stroke-width="3" d="M647.14,-264.77C676.87,-258.54 710.65,-251.47 742.36,-244.83"/>
<polygon fill="#2c3e50" stroke="#2c3e50" stroke-width="3" points="742.77,-248.32 751.84,-242.85 741.34,-241.47 742.77,-248.32"/>
</g>
<!-- Modern Greek -->
<g id="node27" class="node">
<title>Modern Greek</title>
<path fill="#5d6d7e" stroke="black" d="M950.13,-109.34C950.13,-109.34 768.38,-109.34 768.38,-109.34 762.38,-109.34 756.38,-103.34 756.38,-97.34 756.38,-97.34 756.38,-78.84 756.38,-78.84 756.38,-72.84 762.38,-66.84 768.38,-66.84 768.38,-66.84 950.13,-66.84 950.13,-66.84 956.13,-66.84 962.13,-72.84 962.13,-78.84 962.13,-78.84 962.13,-97.34 962.13,-97.34 962.13,-103.34 956.13,-109.34 950.13,-109.34"/>
<text xml:space="preserve" text-anchor="middle" x="859.25" y="-76.84" font-family="Arial" font-size="30.00" fill="white">Modern Greek</text>
</g>
<!-- Greek&#45;&gt;Modern Greek -->
<g id="edge26" class="edge">
<title>Greek&#45;&gt;Modern Greek</title>
<path fill="none" stroke="#2c3e50" stroke-width="3" d="M595.13,-260.23C649.35,-224.89 753.84,-156.79 813.86,-117.68"/>
<polygon fill="#2c3e50" stroke="#2c3e50" stroke-width="3" points="815.69,-120.66 822.16,-112.27 811.87,-114.8 815.69,-120.66"/>
</g>
<!-- French -->
<g id="node28" class="node">
<title>French</title>
<path fill="#5d6d7e" stroke="black" d="M1232.45,-3482.7C1232.45,-3482.7 1098.05,-3482.7 1098.05,-3482.7 1092.05,-3482.7 1086.05,-3476.7 1086.05,-3470.7 1086.05,-3470.7 1086.05,-3452.2 1086.05,-3452.2 1086.05,-3446.2 1092.05,-3440.2 1098.05,-3440.2 1098.05,-3440.2 1232.45,-3440.2 1232.45,-3440.2 1238.45,-3440.2 1244.45,-3446.2 1244.45,-3452.2 1244.45,-3452.2 1244.45,-3470.7 1244.45,-3470.7 1244.45,-3476.7 1238.45,-3482.7 1232.45,-3482.7"/>
<text xml:space="preserve" text-anchor="middle" x="1165.25" y="-3450.2" font-family="Arial" font-size="30.00" fill="white">French</text>
</g>
<!-- Latin&#45;&gt;French -->
<g id="edge27" class="edge">
<title>Latin&#45;&gt;French</title>
<path fill="none" stroke="#2c3e50" stroke-width="3" d="M873.6,-3019.74C922.59,-3093.93 1083.49,-3337.62 1142.92,-3427.64"/>
<polygon fill="#2c3e50" stroke="#2c3e50" stroke-width="3" points="1140,-3429.56 1148.43,-3435.97 1145.84,-3425.7 1140,-3429.56"/>
</g>
<!-- Spanish -->
<g id="node29" class="node">
<title>Spanish</title>
<path fill="#5d6d7e" stroke="black" d="M1232.45,-3350.43C1232.45,-3350.43 1098.05,-3350.43 1098.05,-3350.43 1092.05,-3350.43 1086.05,-3344.43 1086.05,-3338.43 1086.05,-3338.43 1086.05,-3319.93 1086.05,-3319.93 1086.05,-3313.93 1092.05,-3307.93 1098.05,-3307.93 1098.05,-3307.93 1232.45,-3307.93 1232.45,-3307.93 1238.45,-3307.93 1244.45,-3313.93 1244.45,-3319.93 1244.45,-3319.93 1244.45,-3338.43 1244.45,-3338.43 1244.45,-3344.43 1238.45,-3350.43 1232.45,-3350.43"/>
<text xml:space="preserve" text-anchor="middle" x="1165.25" y="-3317.93" font-family="Arial" font-size="30.00" fill="white">Spanish</text>
</g>
<!-- Latin&#45;&gt;Spanish -->
<g id="edge28" class="edge">
<title>Latin&#45;&gt;Spanish</title>
<path fill="none" stroke="#2c3e50" stroke-width="3" d="M879.33,-3019.74C931.98,-3076.72 1074.2,-3230.64 1135.96,-3297.48"/>
<polygon fill="#2c3e50" stroke="#2c3e50" stroke-width="3" points="1133.06,-3299.5 1142.42,-3304.47 1138.2,-3294.75 1133.06,-3299.5"/>
</g>
<!-- Italian -->
<g id="node30" class="node">
<title>Italian</title>
<path fill="#5d6d7e" stroke="black" d="M1232.45,-3218.16C1232.45,-3218.16 1098.05,-3218.16 1098.05,-3218.16 1092.05,-3218.16 1086.05,-3212.16 1086.05,-3206.16 1086.05,-3206.16 1086.05,-3187.66 1086.05,-3187.66 1086.05,-3181.66 1092.05,-3175.66 1098.05,-3175.66 1098.05,-3175.66 1232.45,-3175.66 1232.45,-3175.66 1238.45,-3175.66 1244.45,-3181.66 1244.45,-3187.66 1244.45,-3187.66 1244.45,-3206.16 1244.45,-3206.16 1244.45,-3212.16 1238.45,-3218.16 1232.45,-3218.16"/>
<text xml:space="preserve" text-anchor="middle" x="1165.25" y="-3185.66" font-family="Arial" font-size="30.00" fill="white">Italian</text>
</g>
<!-- Latin&#45;&gt;Italian -->
<g id="edge29" class="edge">
<title>Latin&#45;&gt;Italian</title>
<path fill="none" stroke="#2c3e50" stroke-width="3" d="M892.58,-3019.67C947.65,-3055.47 1057.7,-3127.01 1119.84,-3167.39"/>
<polygon fill="#2c3e50" stroke="#2c3e50" stroke-width="3" points="1117.86,-3170.29 1128.15,-3172.8 1121.68,-3164.42 1117.86,-3170.29"/>
</g>
<!-- Portuguese -->
<g id="node31" class="node">
<title>Portuguese</title>
<path fill="#5d6d7e" stroke="black" d="M1237.38,-3085.9C1237.38,-3085.9 1093.13,-3085.9 1093.13,-3085.9 1087.13,-3085.9 1081.13,-3079.9 1081.13,-3073.9 1081.13,-3073.9 1081.13,-3055.4 1081.13,-3055.4 1081.13,-3049.4 1087.13,-3043.4 1093.13,-3043.4 1093.13,-3043.4 1237.38,-3043.4 1237.38,-3043.4 1243.38,-3043.4 1249.38,-3049.4 1249.38,-3055.4 1249.38,-3055.4 1249.38,-3073.9 1249.38,-3073.9 1249.38,-3079.9 1243.38,-3085.9 1237.38,-3085.9"/>
<text xml:space="preserve" text-anchor="middle" x="1165.25" y="-3053.4" font-family="Arial" font-size="30.00" fill="white">Portuguese</text>
</g>
<!-- Latin&#45;&gt;Portuguese -->
<g id="edge30" class="edge">
<title>Latin&#45;&gt;Portuguese</title>
<path fill="none" stroke="#2c3e50" stroke-width="3" d="M938.85,-3015.34C977.9,-3023.85 1025.32,-3034.17 1066.64,-3043.17"/>
<polygon fill="#2c3e50" stroke="#2c3e50" stroke-width="3" points="1065.74,-3046.56 1076.26,-3045.27 1067.23,-3039.72 1065.74,-3046.56"/>
</g>
<!-- Romanian -->
<g id="node32" class="node">
<title>Romanian</title>
<path fill="#5d6d7e" stroke="black" d="M1232.45,-2953.63C1232.45,-2953.63 1098.05,-2953.63 1098.05,-2953.63 1092.05,-2953.63 1086.05,-2947.63 1086.05,-2941.63 1086.05,-2941.63 1086.05,-2923.13 1086.05,-2923.13 1086.05,-2917.13 1092.05,-2911.13 1098.05,-2911.13 1098.05,-2911.13 1232.45,-2911.13 1232.45,-2911.13 1238.45,-2911.13 1244.45,-2917.13 1244.45,-2923.13 1244.45,-2923.13 1244.45,-2941.63 1244.45,-2941.63 1244.45,-2947.63 1238.45,-2953.63 1232.45,-2953.63"/>
<text xml:space="preserve" text-anchor="middle" x="1165.25" y="-2921.13" font-family="Arial" font-size="30.00" fill="white">Romanian</text>
</g>
<!-- Latin&#45;&gt;Romanian -->
<g id="edge31" class="edge">
<title>Latin&#45;&gt;Romanian</title>
<path fill="none" stroke="#2c3e50" stroke-width="3" d="M938.85,-2980.94C979.5,-2972.22 1029.21,-2961.56 1071.68,-2952.45"/>
<polygon fill="#2c3e50" stroke="#2c3e50" stroke-width="3" points="1072.3,-2955.89 1081.34,-2950.38 1070.83,-2949.05 1072.3,-2955.89"/>
</g>
<!-- Irish -->
<g id="node33" class="node">
<title>Irish</title>
<path fill="#5d6d7e" stroke="black" d="M1232.45,-2821.36C1232.45,-2821.36 1098.05,-2821.36 1098.05,-2821.36 1092.05,-2821.36 1086.05,-2815.36 1086.05,-2809.36 1086.05,-2809.36 1086.05,-2790.86 1086.05,-2790.86 1086.05,-2784.86 1092.05,-2778.86 1098.05,-2778.86 1098.05,-2778.86 1232.45,-2778.86 1232.45,-2778.86 1238.45,-2778.86 1244.45,-2784.86 1244.45,-2790.86 1244.45,-2790.86 1244.45,-2809.36 1244.45,-2809.36 1244.45,-2815.36 1238.45,-2821.36 1232.45,-2821.36"/>
<text xml:space="preserve" text-anchor="middle" x="1165.25" y="-2788.86" font-family="Arial" font-size="30.00" fill="white">Irish</text>
</g>
<!-- Goidelic&#45;&gt;Irish -->
<g id="edge32" class="edge">
<title>Goidelic&#45;&gt;Irish</title>
<path fill="none" stroke="#2c3e50" stroke-width="3" d="M909.44,-2689.54C962.02,-2712.27 1044.76,-2748.03 1101.83,-2772.7"/>
<polygon fill="#2c3e50" stroke="#2c3e50" stroke-width="3" points="1100.3,-2775.85 1110.87,-2776.61 1103.08,-2769.43 1100.3,-2775.85"/>
</g>
<!-- Scottish Gaelic -->
<g id="node34" class="node">
<title>Scottish Gaelic</title>
<path fill="#5d6d7e" stroke="black" d="M1261,-2689.1C1261,-2689.1 1069.5,-2689.1 1069.5,-2689.1 1063.5,-2689.1 1057.5,-2683.1 1057.5,-2677.1 1057.5,-2677.1 1057.5,-2658.6 1057.5,-2658.6 1057.5,-2652.6 1063.5,-2646.6 1069.5,-2646.6 1069.5,-2646.6 1261,-2646.6 1261,-2646.6 1267,-2646.6 1273,-2652.6 1273,-2658.6 1273,-2658.6 1273,-2677.1 1273,-2677.1 1273,-2683.1 1267,-2689.1 1261,-2689.1"/>
<text xml:space="preserve" text-anchor="middle" x="1165.25" y="-2656.6" font-family="Arial" font-size="30.00" fill="white">Scottish Gaelic</text>
</g>
<!-- Goidelic&#45;&gt;Scottish Gaelic -->
<g id="edge33" class="edge">
<title>Goidelic&#45;&gt;Scottish Gaelic</title>
<path fill="none" stroke="#2c3e50" stroke-width="3" d="M938.85,-2667.85C970.6,-2667.85 1007.88,-2667.85 1042.92,-2667.85"/>
<polygon fill="#2c3e50" stroke="#2c3e50" stroke-width="3" points="1042.71,-2671.35 1052.71,-2667.85 1042.71,-2664.35 1042.71,-2671.35"/>
</g>
<!-- Welsh -->
<g id="node35" class="node">
<title>Welsh</title>
<path fill="#5d6d7e" stroke="black" d="M1232.45,-2556.83C1232.45,-2556.83 1098.05,-2556.83 1098.05,-2556.83 1092.05,-2556.83 1086.05,-2550.83 1086.05,-2544.83 1086.05,-2544.83 1086.05,-2526.33 1086.05,-2526.33 1086.05,-2520.33 1092.05,-2514.33 1098.05,-2514.33 1098.05,-2514.33 1232.45,-2514.33 1232.45,-2514.33 1238.45,-2514.33 1244.45,-2520.33 1244.45,-2526.33 1244.45,-2526.33 1244.45,-2544.83 1244.45,-2544.83 1244.45,-2550.83 1238.45,-2556.83 1232.45,-2556.83"/>
<text xml:space="preserve" text-anchor="middle" x="1165.25" y="-2524.33" font-family="Arial" font-size="30.00" fill="white">Welsh</text>
</g>
<!-- Brittonic&#45;&gt;Welsh -->
<g id="edge34" class="edge">
<title>Brittonic&#45;&gt;Welsh</title>
<path fill="none" stroke="#2c3e50" stroke-width="3" d="M938.85,-2486.27C979.5,-2495.13 1029.21,-2505.95 1071.68,-2515.2"/>
<polygon fill="#2c3e50" stroke="#2c3e50" stroke-width="3" points="1070.83,-2518.6 1081.35,-2517.31 1072.32,-2511.76 1070.83,-2518.6"/>
</g>
<!-- Breton -->
<g id="node36" class="node">
<title>Breton</title>
<path fill="#5d6d7e" stroke="black" d="M1232.45,-2424.56C1232.45,-2424.56 1098.05,-2424.56 1098.05,-2424.56 1092.05,-2424.56 1086.05,-2418.56 1086.05,-2412.56 1086.05,-2412.56 1086.05,-2394.06 1086.05,-2394.06 1086.05,-2388.06 1092.05,-2382.06 1098.05,-2382.06 1098.05,-2382.06 1232.45,-2382.06 1232.45,-2382.06 1238.45,-2382.06 1244.45,-2388.06 1244.45,-2394.06 1244.45,-2394.06 1244.45,-2412.56 1244.45,-2412.56 1244.45,-2418.56 1238.45,-2424.56 1232.45,-2424.56"/>
<text xml:space="preserve" text-anchor="middle" x="1165.25" y="-2392.06" font-family="Arial" font-size="30.00" fill="white">Breton</text>
</g>
<!-- Brittonic&#45;&gt;Breton -->
<g id="edge35" class="edge">
<title>Brittonic&#45;&gt;Breton</title>
<path fill="none" stroke="#2c3e50" stroke-width="3" d="M938.85,-2451.87C979.5,-2443.15 1029.21,-2432.49 1071.68,-2423.38"/>
<polygon fill="#2c3e50" stroke="#2c3e50" stroke-width="3" points="1072.3,-2426.83 1081.34,-2421.31 1070.83,-2419.98 1072.3,-2426.83"/>
</g>
<!-- English -->
<g id="node37" class="node">
<title>English</title>
<path fill="#5d6d7e" stroke="black" d="M1232.45,-2292.29C1232.45,-2292.29 1098.05,-2292.29 1098.05,-2292.29 1092.05,-2292.29 1086.05,-2286.29 1086.05,-2280.29 1086.05,-2280.29 1086.05,-2261.79 1086.05,-2261.79 1086.05,-2255.79 1092.05,-2249.79 1098.05,-2249.79 1098.05,-2249.79 1232.45,-2249.79 1232.45,-2249.79 1238.45,-2249.79 1244.45,-2255.79 1244.45,-2261.79 1244.45,-2261.79 1244.45,-2280.29 1244.45,-2280.29 1244.45,-2286.29 1238.45,-2292.29 1232.45,-2292.29"/>
<text xml:space="preserve" text-anchor="middle" x="1165.25" y="-2259.79" font-family="Arial" font-size="30.00" fill="white">English</text>
</g>
<!-- West Germanic&#45;&gt;English -->
<g id="edge36" class="edge">
<title>West Germanic&#45;&gt;English</title>
<path fill="none" stroke="#2c3e50" stroke-width="3" d="M892.58,-2093.8C947.65,-2129.6 1057.7,-2201.14 1119.84,-2241.52"/>
<polygon fill="#2c3e50" stroke="#2c3e50" stroke-width="3" points="1117.86,-2244.42 1128.15,-2246.93 1121.68,-2238.55 1117.86,-2244.42"/>
</g>
<!-- German -->
<g id="node38" class="node">
<title>German</title>
<path fill="#5d6d7e" stroke="black" d="M1232.45,-2160.03C1232.45,-2160.03 1098.05,-2160.03 1098.05,-2160.03 1092.05,-2160.03 1086.05,-2154.03 1086.05,-2148.03 1086.05,-2148.03 1086.05,-2129.53 1086.05,-2129.53 1086.05,-2123.53 1092.05,-2117.53 1098.05,-2117.53 1098.05,-2117.53 1232.45,-2117.53 1232.45,-2117.53 1238.45,-2117.53 1244.45,-2123.53 1244.45,-2129.53 1244.45,-2129.53 1244.45,-2148.03 1244.45,-2148.03 1244.45,-2154.03 1238.45,-2160.03 1232.45,-2160.03"/>
<text xml:space="preserve" text-anchor="middle" x="1165.25" y="-2127.53" font-family="Arial" font-size="30.00" fill="white">German</text>
</g>
<!-- West Germanic&#45;&gt;German -->
<g id="edge37" class="edge">
<title>West Germanic&#45;&gt;German</title>
<path fill="none" stroke="#2c3e50" stroke-width="3" d="M959.02,-2093.87C995.36,-2101.78 1036.27,-2110.69 1072.02,-2118.47"/>
<polygon fill="#2c3e50" stroke="#2c3e50" stroke-width="3" points="1071.01,-2121.84 1081.52,-2120.54 1072.5,-2115 1071.01,-2121.84"/>
</g>
<!-- Dutch -->
<g id="node39" class="node">
<title>Dutch</title>
<path fill="#5d6d7e" stroke="black" d="M1232.45,-2027.76C1232.45,-2027.76 1098.05,-2027.76 1098.05,-2027.76 1092.05,-2027.76 1086.05,-2021.76 1086.05,-2015.76 1086.05,-2015.76 1086.05,-1997.26 1086.05,-1997.26 1086.05,-1991.26 1092.05,-1985.26 1098.05,-1985.26 1098.05,-1985.26 1232.45,-1985.26 1232.45,-1985.26 1238.45,-1985.26 1244.45,-1991.26 1244.45,-1997.26 1244.45,-1997.26 1244.45,-2015.76 1244.45,-2015.76 1244.45,-2021.76 1238.45,-2027.76 1232.45,-2027.76"/>
<text xml:space="preserve" text-anchor="middle" x="1165.25" y="-1995.26" font-family="Arial" font-size="30.00" fill="white">Dutch</text>
</g>
<!-- West Germanic&#45;&gt;Dutch -->
<g id="edge38" class="edge">
<title>West Germanic&#45;&gt;Dutch</title>
<path fill="none" stroke="#2c3e50" stroke-width="3" d="M960.29,-2050.47C996.26,-2042.76 1036.56,-2034.11 1071.86,-2026.54"/>
<polygon fill="#2c3e50" stroke="#2c3e50" stroke-width="3" points="1072.14,-2030.06 1081.18,-2024.54 1070.67,-2023.22 1072.14,-2030.06"/>
</g>
<!-- Swedish -->
<g id="node40" class="node">
<title>Swedish</title>
<path fill="#5d6d7e" stroke="black" d="M1232.45,-1895.49C1232.45,-1895.49 1098.05,-1895.49 1098.05,-1895.49 1092.05,-1895.49 1086.05,-1889.49 1086.05,-1883.49 1086.05,-1883.49 1086.05,-1864.99 1086.05,-1864.99 1086.05,-1858.99 1092.05,-1852.99 1098.05,-1852.99 1098.05,-1852.99 1232.45,-1852.99 1232.45,-1852.99 1238.45,-1852.99 1244.45,-1858.99 1244.45,-1864.99 1244.45,-1864.99 1244.45,-1883.49 1244.45,-1883.49 1244.45,-1889.49 1238.45,-1895.49 1232.45,-1895.49"/>
<text xml:space="preserve" text-anchor="middle" x="1165.25" y="-1862.99" font-family="Arial" font-size="30.00" fill="white">Swedish</text>
</g>
<!-- North Germanic&#45;&gt;Swedish -->
<g id="edge39" class="edge">
<title>North Germanic&#45;&gt;Swedish</title>
<path fill="none" stroke="#2c3e50" stroke-width="3" d="M892.58,-1697C947.65,-1732.8 1057.7,-1804.34 1119.84,-1844.72"/>
<polygon fill="#2c3e50" stroke="#2c3e50" stroke-width="3" points="1117.86,-1847.62 1128.15,-1850.13 1121.68,-1841.75 1117.86,-1847.62"/>
</g>
<!-- Danish -->
<g id="node41" class="node">
<title>Danish</title>
<path fill="#5d6d7e" stroke="black" d="M1232.45,-1763.23C1232.45,-1763.23 1098.05,-1763.23 1098.05,-1763.23 1092.05,-1763.23 1086.05,-1757.23 1086.05,-1751.23 1086.05,-1751.23 1086.05,-1732.73 1086.05,-1732.73 1086.05,-1726.73 1092.05,-1720.73 1098.05,-1720.73 1098.05,-1720.73 1232.45,-1720.73 1232.45,-1720.73 1238.45,-1720.73 1244.45,-1726.73 1244.45,-1732.73 1244.45,-1732.73 1244.45,-1751.23 1244.45,-1751.23 1244.45,-1757.23 1238.45,-1763.23 1232.45,-1763.23"/>
<text xml:space="preserve" text-anchor="middle" x="1165.25" y="-1730.73" font-family="Arial" font-size="30.00" fill="white">Danish</text>
</g>
<!-- North Germanic&#45;&gt;Danish -->
<g id="edge40" class="edge">
<title>North Germanic&#45;&gt;Danish</title>
<path fill="none" stroke="#2c3e50" stroke-width="3" d="M959.02,-1697.07C995.36,-1704.98 1036.27,-1713.89 1072.02,-1721.67"/>
<polygon fill="#2c3e50" stroke="#2c3e50" stroke-width="3" points="1071.01,-1725.04 1081.52,-1723.74 1072.5,-1718.2 1071.01,-1725.04"/>
</g>
<!-- Norwegian -->
<g id="node42" class="node">
<title>Norwegian</title>
<path fill="#5d6d7e" stroke="black" d="M1232.5,-1630.96C1232.5,-1630.96 1098,-1630.96 1098,-1630.96 1092,-1630.96 1086,-1624.96 1086,-1618.96 1086,-1618.96 1086,-1600.46 1086,-1600.46 1086,-1594.46 1092,-1588.46 1098,-1588.46 1098,-1588.46 1232.5,-1588.46 1232.5,-1588.46 1238.5,-1588.46 1244.5,-1594.46 1244.5,-1600.46 1244.5,-1600.46 1244.5,-1618.96 1244.5,-1618.96 1244.5,-1624.96 1238.5,-1630.96 1232.5,-1630.96"/>
<text xml:space="preserve" text-anchor="middle" x="1165.25" y="-1598.46" font-family="Arial" font-size="30.00" fill="white">Norwegian</text>
</g>
<!-- North Germanic&#45;&gt;Norwegian -->
<g id="edge41" class="edge">
<title>North Germanic&#45;&gt;Norwegian</title>
<path fill="none" stroke="#2c3e50" stroke-width="3" d="M960.29,-1653.67C996.26,-1645.95 1036.56,-1637.31 1071.86,-1629.74"/>
<polygon fill="#2c3e50" stroke="#2c3e50" stroke-width="3" points="1072.14,-1633.26 1081.18,-1627.74 1070.67,-1626.41 1072.14,-1633.26"/>
</g>
<!-- Icelandic -->
<g id="node43" class="node">
<title>Icelandic</title>
<path fill="#5d6d7e" stroke="black" d="M1232.45,-1498.69C1232.45,-1498.69 1098.05,-1498.69 1098.05,-1498.69 1092.05,-1498.69 1086.05,-1492.69 1086.05,-1486.69 1086.05,-1486.69 1086.05,-1468.19 1086.05,-1468.19 1086.05,-1462.19 1092.05,-1456.19 1098.05,-1456.19 1098.05,-1456.19 1232.45,-1456.19 1232.45,-1456.19 1238.45,-1456.19 1244.45,-1462.19 1244.45,-1468.19 1244.45,-1468.19 1244.45,-1486.69 1244.45,-1486.69 1244.45,-1492.69 1238.45,-1498.69 1232.45,-1498.69"/>
<text xml:space="preserve" text-anchor="middle" x="1165.25" y="-1466.19" font-family="Arial" font-size="30.00" fill="white">Icelandic</text>
</g>
<!-- North Germanic&#45;&gt;Icelandic -->
<g id="edge42" class="edge">
<title>North Germanic&#45;&gt;Icelandic</title>
<path fill="none" stroke="#2c3e50" stroke-width="3" d="M892.87,-1653.59C948.07,-1617.9 1057.93,-1546.85 1119.94,-1506.75"/>
<polygon fill="#2c3e50" stroke="#2c3e50" stroke-width="3" points="1121.73,-1509.76 1128.22,-1501.39 1117.93,-1503.88 1121.73,-1509.76"/>
</g>
<!-- Latvian -->
<g id="node44" class="node">
<title>Latvian</title>
<path fill="#5d6d7e" stroke="black" d="M1232.45,-1366.43C1232.45,-1366.43 1098.05,-1366.43 1098.05,-1366.43 1092.05,-1366.43 1086.05,-1360.43 1086.05,-1354.43 1086.05,-1354.43 1086.05,-1335.93 1086.05,-1335.93 1086.05,-1329.93 1092.05,-1323.93 1098.05,-1323.93 1098.05,-1323.93 1232.45,-1323.93 1232.45,-1323.93 1238.45,-1323.93 1244.45,-1329.93 1244.45,-1335.93 1244.45,-1335.93 1244.45,-1354.43 1244.45,-1354.43 1244.45,-1360.43 1238.45,-1366.43 1232.45,-1366.43"/>
<text xml:space="preserve" text-anchor="middle" x="1165.25" y="-1333.93" font-family="Arial" font-size="30.00" fill="white">Latvian</text>
</g>
<!-- Baltic&#45;&gt;Latvian -->
<g id="edge43" class="edge">
<title>Baltic&#45;&gt;Latvian</title>
<path fill="none" stroke="#2c3e50" stroke-width="3" d="M938.85,-1295.87C979.5,-1304.72 1029.21,-1315.55 1071.68,-1324.8"/>
<polygon fill="#2c3e50" stroke="#2c3e50" stroke-width="3" points="1070.83,-1328.2 1081.35,-1326.9 1072.32,-1321.36 1070.83,-1328.2"/>
</g>
<!-- Lithuanian -->
<g id="node45" class="node">
<title>Lithuanian</title>
<path fill="#5d6d7e" stroke="black" d="M1232.45,-1233.15C1232.45,-1233.15 1098.05,-1233.15 1098.05,-1233.15 1092.05,-1233.15 1086.05,-1227.15 1086.05,-1221.15 1086.05,-1221.15 1086.05,-1202.65 1086.05,-1202.65 1086.05,-1196.65 1092.05,-1190.65 1098.05,-1190.65 1098.05,-1190.65 1232.45,-1190.65 1232.45,-1190.65 1238.45,-1190.65 1244.45,-1196.65 1244.45,-1202.65 1244.45,-1202.65 1244.45,-1221.15 1244.45,-1221.15 1244.45,-1227.15 1238.45,-1233.15 1232.45,-1233.15"/>
<text xml:space="preserve" text-anchor="middle" x="1165.25" y="-1200.65" font-family="Arial" font-size="30.00" fill="white">Lithuanian</text>
</g>
<!-- Baltic&#45;&gt;Lithuanian -->
<g id="edge44" class="edge">
<title>Baltic&#45;&gt;Lithuanian</title>
<path fill="none" stroke="#2c3e50" stroke-width="3" d="M938.85,-1261.2C979.5,-1252.35 1029.21,-1241.53 1071.68,-1232.28"/>
<polygon fill="#2c3e50" stroke="#2c3e50" stroke-width="3" points="1072.32,-1235.72 1081.35,-1230.17 1070.83,-1228.88 1072.32,-1235.72"/>
</g>
<!-- East Slavic -->
<g id="node46" class="node">
<title>East Slavic</title>
<path fill="#5d6d7e" stroke="black" d="M1235.5,-1100.88C1235.5,-1100.88 1095,-1100.88 1095,-1100.88 1089,-1100.88 1083,-1094.88 1083,-1088.88 1083,-1088.88 1083,-1070.38 1083,-1070.38 1083,-1064.38 1089,-1058.38 1095,-1058.38 1095,-1058.38 1235.5,-1058.38 1235.5,-1058.38 1241.5,-1058.38 1247.5,-1064.38 1247.5,-1070.38 1247.5,-1070.38 1247.5,-1088.88 1247.5,-1088.88 1247.5,-1094.88 1241.5,-1100.88 1235.5,-1100.88"/>
<text xml:space="preserve" text-anchor="middle" x="1165.25" y="-1068.38" font-family="Arial" font-size="30.00" fill="white">East Slavic</text>
</g>
<!-- Slavic&#45;&gt;East Slavic -->
<g id="edge45" class="edge">
<title>Slavic&#45;&gt;East Slavic</title>
<path fill="none" stroke="#2c3e50" stroke-width="3" d="M938.85,-1031.08C978.46,-1039.57 1026.67,-1049.91 1068.4,-1058.86"/>
<polygon fill="#2c3e50" stroke="#2c3e50" stroke-width="3" points="1067.63,-1062.27 1078.14,-1060.95 1069.1,-1055.43 1067.63,-1062.27"/>
</g>
<!-- West Slavic -->
<g id="node47" class="node">
<title>West Slavic</title>
<path fill="#5d6d7e" stroke="black" d="M1239.25,-968.57C1239.25,-968.57 1091.25,-968.57 1091.25,-968.57 1085.25,-968.57 1079.25,-962.57 1079.25,-956.57 1079.25,-956.57 1079.25,-938.07 1079.25,-938.07 1079.25,-932.07 1085.25,-926.07 1091.25,-926.07 1091.25,-926.07 1239.25,-926.07 1239.25,-926.07 1245.25,-926.07 1251.25,-932.07 1251.25,-938.07 1251.25,-938.07 1251.25,-956.57 1251.25,-956.57 1251.25,-962.57 1245.25,-968.57 1239.25,-968.57"/>
<text xml:space="preserve" text-anchor="middle" x="1165.25" y="-936.07" font-family="Arial" font-size="30.00" fill="white">West Slavic</text>
</g>
<!-- Slavic&#45;&gt;West Slavic -->
<g id="edge46" class="edge">
<title>Slavic&#45;&gt;West Slavic</title>
<path fill="none" stroke="#2c3e50" stroke-width="3" d="M938.85,-996.66C977.26,-988.29 1023.77,-978.15 1064.61,-969.25"/>
<polygon fill="#2c3e50" stroke="#2c3e50" stroke-width="3" points="1065.34,-972.68 1074.36,-967.13 1063.84,-965.84 1065.34,-972.68"/>
</g>
<!-- South Slavic -->
<g id="node48" class="node">
<title>South Slavic</title>
<path fill="#5d6d7e" stroke="black" d="M1244.5,-836.31C1244.5,-836.31 1086,-836.31 1086,-836.31 1080,-836.31 1074,-830.31 1074,-824.31 1074,-824.31 1074,-805.81 1074,-805.81 1074,-799.81 1080,-793.81 1086,-793.81 1086,-793.81 1244.5,-793.81 1244.5,-793.81 1250.5,-793.81 1256.5,-799.81 1256.5,-805.81 1256.5,-805.81 1256.5,-824.31 1256.5,-824.31 1256.5,-830.31 1250.5,-836.31 1244.5,-836.31"/>
<text xml:space="preserve" text-anchor="middle" x="1165.25" y="-803.81" font-family="Arial" font-size="30.00" fill="white">South Slavic</text>
</g>
<!-- Slavic&#45;&gt;South Slavic -->
<g id="edge47" class="edge">
<title>Slavic&#45;&gt;South Slavic</title>
<path fill="none" stroke="#2c3e50" stroke-width="3" d="M892.58,-992.33C947.65,-956.53 1057.7,-884.98 1119.84,-844.58"/>
<polygon fill="#2c3e50" stroke="#2c3e50" stroke-width="3" points="1121.68,-847.56 1128.15,-839.18 1117.86,-841.69 1121.68,-847.56"/>
</g>
<!-- Hindi&#45;Urdu -->
<g id="node49" class="node">
<title>Hindi&#45;Urdu</title>
<path fill="#5d6d7e" stroke="black" d="M1232.5,-704.04C1232.5,-704.04 1098,-704.04 1098,-704.04 1092,-704.04 1086,-698.04 1086,-692.04 1086,-692.04 1086,-673.54 1086,-673.54 1086,-667.54 1092,-661.54 1098,-661.54 1098,-661.54 1232.5,-661.54 1232.5,-661.54 1238.5,-661.54 1244.5,-667.54 1244.5,-673.54 1244.5,-673.54 1244.5,-692.04 1244.5,-692.04 1244.5,-698.04 1238.5,-704.04 1232.5,-704.04"/>
<text xml:space="preserve" text-anchor="middle" x="1165.25" y="-671.54" font-family="Arial" font-size="30.00" fill="white">Hindi&#45;Urdu</text>
</g>
<!-- Indo&#45;Aryan&#45;&gt;Hindi&#45;Urdu -->
<g id="edge48" class="edge">
<title>Indo&#45;Aryan&#45;&gt;Hindi&#45;Urdu</title>
<path fill="none" stroke="#2c3e50" stroke-width="3" d="M940.45,-634.58C980.69,-643.21 1029.49,-653.67 1071.34,-662.65"/>
<polygon fill="#2c3e50" stroke="#2c3e50" stroke-width="3" points="1070.58,-666.07 1081.09,-664.74 1072.04,-659.22 1070.58,-666.07"/>
</g>
<!-- Bengali -->
<g id="node50" class="node">
<title>Bengali</title>
<path fill="#5d6d7e" stroke="black" d="M1232.45,-571.77C1232.45,-571.77 1098.05,-571.77 1098.05,-571.77 1092.05,-571.77 1086.05,-565.77 1086.05,-559.77 1086.05,-559.77 1086.05,-541.27 1086.05,-541.27 1086.05,-535.27 1092.05,-529.27 1098.05,-529.27 1098.05,-529.27 1232.45,-529.27 1232.45,-529.27 1238.45,-529.27 1244.45,-535.27 1244.45,-541.27 1244.45,-541.27 1244.45,-559.77 1244.45,-559.77 1244.45,-565.77 1238.45,-571.77 1232.45,-571.77"/>
<text xml:space="preserve" text-anchor="middle" x="1165.25" y="-539.27" font-family="Arial" font-size="30.00" fill="white">Bengali</text>
</g>
<!-- Indo&#45;Aryan&#45;&gt;Bengali -->
<g id="edge49" class="edge">
<title>Indo&#45;Aryan&#45;&gt;Bengali</title>
<path fill="none" stroke="#2c3e50" stroke-width="3" d="M940.45,-599.48C980.85,-590.68 1029.9,-580 1071.86,-570.86"/>
<polygon fill="#2c3e50" stroke="#2c3e50" stroke-width="3" points="1072.33,-574.34 1081.35,-568.79 1070.84,-567.5 1072.33,-574.34"/>
</g>
<!-- Punjabi -->
<g id="node51" class="node">
<title>Punjabi</title>
<path fill="#5d6d7e" stroke="black" d="M1232.45,-439.51C1232.45,-439.51 1098.05,-439.51 1098.05,-439.51 1092.05,-439.51 1086.05,-433.51 1086.05,-427.51 1086.05,-427.51 1086.05,-409.01 1086.05,-409.01 1086.05,-403.01 1092.05,-397.01 1098.05,-397.01 1098.05,-397.01 1232.45,-397.01 1232.45,-397.01 1238.45,-397.01 1244.45,-403.01 1244.45,-409.01 1244.45,-409.01 1244.45,-427.51 1244.45,-427.51 1244.45,-433.51 1238.45,-439.51 1232.45,-439.51"/>
<text xml:space="preserve" text-anchor="middle" x="1165.25" y="-407.01" font-family="Arial" font-size="30.00" fill="white">Punjabi</text>
</g>
<!-- Indo&#45;Aryan&#45;&gt;Punjabi -->
<g id="edge50" class="edge">
<title>Indo&#45;Aryan&#45;&gt;Punjabi</title>
<path fill="none" stroke="#2c3e50" stroke-width="3" d="M892.58,-595.5C947.65,-559.7 1057.7,-488.16 1119.84,-447.78"/>
<polygon fill="#2c3e50" stroke="#2c3e50" stroke-width="3" points="1121.68,-450.75 1128.15,-442.37 1117.86,-444.89 1121.68,-450.75"/>
</g>
<!-- Persian -->
<g id="node52" class="node">
<title>Persian</title>
<path fill="#5d6d7e" stroke="black" d="M1232.45,-307.24C1232.45,-307.24 1098.05,-307.24 1098.05,-307.24 1092.05,-307.24 1086.05,-301.24 1086.05,-295.24 1086.05,-295.24 1086.05,-276.74 1086.05,-276.74 1086.05,-270.74 1092.05,-264.74 1098.05,-264.74 1098.05,-264.74 1232.45,-264.74 1232.45,-264.74 1238.45,-264.74 1244.45,-270.74 1244.45,-276.74 1244.45,-276.74 1244.45,-295.24 1244.45,-295.24 1244.45,-301.24 1238.45,-307.24 1232.45,-307.24"/>
<text xml:space="preserve" text-anchor="middle" x="1165.25" y="-274.74" font-family="Arial" font-size="30.00" fill="white">Persian</text>
</g>
<!-- Iranian&#45;&gt;Persian -->
<g id="edge51" class="edge">
<title>Iranian&#45;&gt;Persian</title>
<path fill="none" stroke="#2c3e50" stroke-width="3" d="M892.58,-463.23C947.65,-427.43 1057.7,-355.9 1119.84,-315.51"/>
<polygon fill="#2c3e50" stroke="#2c3e50" stroke-width="3" points="1121.68,-318.49 1128.15,-310.1 1117.86,-312.62 1121.68,-318.49"/>
</g>
<!-- Kurdish -->
<g id="node53" class="node">
<title>Kurdish</title>
<path fill="#5d6d7e" stroke="black" d="M1232.45,-174.97C1232.45,-174.97 1098.05,-174.97 1098.05,-174.97 1092.05,-174.97 1086.05,-168.97 1086.05,-162.97 1086.05,-162.97 1086.05,-144.47 1086.05,-144.47 1086.05,-138.47 1092.05,-132.47 1098.05,-132.47 1098.05,-132.47 1232.45,-132.47 1232.45,-132.47 1238.45,-132.47 1244.45,-138.47 1244.45,-144.47 1244.45,-144.47 1244.45,-162.97 1244.45,-162.97 1244.45,-168.97 1238.45,-174.97 1232.45,-174.97"/>
<text xml:space="preserve" text-anchor="middle" x="1165.25" y="-142.47" font-family="Arial" font-size="30.00" fill="white">Kurdish</text>
</g>
<!-- Iranian&#45;&gt;Kurdish -->
<g id="edge52" class="edge">
<title>Iranian&#45;&gt;Kurdish</title>
<path fill="none" stroke="#2c3e50" stroke-width="3" d="M879.33,-463.17C931.98,-406.19 1074.2,-252.27 1135.96,-185.42"/>
<polygon fill="#2c3e50" stroke="#2c3e50" stroke-width="3" points="1138.2,-188.16 1142.42,-178.44 1133.06,-183.41 1138.2,-188.16"/>
</g>
<!-- Pashto -->
<g id="node54" class="node">
<title>Pashto</title>
<path fill="#5d6d7e" stroke="black" d="M1232.45,-42.71C1232.45,-42.71 1098.05,-42.71 1098.05,-42.71 1092.05,-42.71 1086.05,-36.71 1086.05,-30.71 1086.05,-30.71 1086.05,-12.21 1086.05,-12.21 1086.05,-6.21 1092.05,-0.21 1098.05,-0.21 1098.05,-0.21 1232.45,-0.21 1232.45,-0.21 1238.45,-0.21 1244.45,-6.21 1244.45,-12.21 1244.45,-12.21 1244.45,-30.71 1244.45,-30.71 1244.45,-36.71 1238.45,-42.71 1232.45,-42.71"/>
<text xml:space="preserve" text-anchor="middle" x="1165.25" y="-10.21" font-family="Arial" font-size="30.00" fill="white">Pashto</text>
</g>
<!-- Iranian&#45;&gt;Pashto -->
<g id="edge53" class="edge">
<title>Iranian&#45;&gt;Pashto</title>
<path fill="none" stroke="#2c3e50" stroke-width="3" d="M873.6,-463.16C922.59,-388.97 1083.49,-145.29 1142.92,-55.27"/>
<polygon fill="#2c3e50" stroke="#2c3e50" stroke-width="3" points="1145.84,-57.2 1148.43,-46.93 1140,-53.35 1145.84,-57.2"/>
</g>
<!-- Russian -->
<g id="node55" class="node">
<title>Russian</title>
<path fill="#5d6d7e" stroke="black" d="M1535.45,-1299.79C1535.45,-1299.79 1401.05,-1299.79 1401.05,-1299.79 1395.05,-1299.79 1389.05,-1293.79 1389.05,-1287.79 1389.05,-1287.79 1389.05,-1269.29 1389.05,-1269.29 1389.05,-1263.29 1395.05,-1257.29 1401.05,-1257.29 1401.05,-1257.29 1535.45,-1257.29 1535.45,-1257.29 1541.45,-1257.29 1547.45,-1263.29 1547.45,-1269.29 1547.45,-1269.29 1547.45,-1287.79 1547.45,-1287.79 1547.45,-1293.79 1541.45,-1299.79 1535.45,-1299.79"/>
<text xml:space="preserve" text-anchor="middle" x="1468.25" y="-1267.29" font-family="Arial" font-size="30.00" fill="white">Russian</text>
</g>
<!-- East Slavic&#45;&gt;Russian -->
<g id="edge54" class="edge">
<title>East Slavic&#45;&gt;Russian</title>
<path fill="none" stroke="#2c3e50" stroke-width="3" d="M1198.25,-1101.3C1252.78,-1137.09 1361.76,-1208.63 1423.28,-1249.02"/>
<polygon fill="#2c3e50" stroke="#2c3e50" stroke-width="3" points="1421.21,-1251.85 1431.49,-1254.41 1425.05,-1245.99 1421.21,-1251.85"/>
</g>
<!-- Ukrainian -->
<g id="node56" class="node">
<title>Ukrainian</title>
<path fill="#5d6d7e" stroke="black" d="M1535.45,-1167.52C1535.45,-1167.52 1401.05,-1167.52 1401.05,-1167.52 1395.05,-1167.52 1389.05,-1161.52 1389.05,-1155.52 1389.05,-1155.52 1389.05,-1137.02 1389.05,-1137.02 1389.05,-1131.02 1395.05,-1125.02 1401.05,-1125.02 1401.05,-1125.02 1535.45,-1125.02 1535.45,-1125.02 1541.45,-1125.02 1547.45,-1131.02 1547.45,-1137.02 1547.45,-1137.02 1547.45,-1155.52 1547.45,-1155.52 1547.45,-1161.52 1541.45,-1167.52 1535.45,-1167.52"/>
<text xml:space="preserve" text-anchor="middle" x="1468.25" y="-1135.02" font-family="Arial" font-size="30.00" fill="white">Ukrainian</text>
</g>
<!-- East Slavic&#45;&gt;Ukrainian -->
<g id="edge55" class="edge">
<title>East Slavic&#45;&gt;Ukrainian</title>
<path fill="none" stroke="#2c3e50" stroke-width="3" d="M1247.65,-1097.75C1286.91,-1106.39 1334.07,-1116.76 1374.68,-1125.69"/>
<polygon fill="#2c3e50" stroke="#2c3e50" stroke-width="3" points="1373.79,-1129.08 1384.31,-1127.81 1375.3,-1122.24 1373.79,-1129.08"/>
</g>
<!-- Polish -->
<g id="node57" class="node">
<title>Polish</title>
<path fill="#5d6d7e" stroke="black" d="M1535.45,-1035.25C1535.45,-1035.25 1401.05,-1035.25 1401.05,-1035.25 1395.05,-1035.25 1389.05,-1029.25 1389.05,-1023.25 1389.05,-1023.25 1389.05,-1004.75 1389.05,-1004.75 1389.05,-998.75 1395.05,-992.75 1401.05,-992.75 1401.05,-992.75 1535.45,-992.75 1535.45,-992.75 1541.45,-992.75 1547.45,-998.75 1547.45,-1004.75 1547.45,-1004.75 1547.45,-1023.25 1547.45,-1023.25 1547.45,-1029.25 1541.45,-1035.25 1535.45,-1035.25"/>
<text xml:space="preserve" text-anchor="middle" x="1468.25" y="-1002.75" font-family="Arial" font-size="30.00" fill="white">Polish</text>
</g>
<!-- West Slavic&#45;&gt;Polish -->
<g id="edge56" class="edge">
<title>West Slavic&#45;&gt;Polish</title>
<path fill="none" stroke="#2c3e50" stroke-width="3" d="M1251.67,-966.34C1290.07,-974.79 1335.36,-984.76 1374.57,-993.39"/>
<polygon fill="#2c3e50" stroke="#2c3e50" stroke-width="3" points="1373.77,-996.79 1384.28,-995.53 1375.27,-989.96 1373.77,-996.79"/>
</g>
<!-- Czech -->
<g id="node58" class="node">
<title>Czech</title>
<path fill="#5d6d7e" stroke="black" d="M1535.45,-902.95C1535.45,-902.95 1401.05,-902.95 1401.05,-902.95 1395.05,-902.95 1389.05,-896.95 1389.05,-890.95 1389.05,-890.95 1389.05,-872.45 1389.05,-872.45 1389.05,-866.45 1395.05,-860.45 1401.05,-860.45 1401.05,-860.45 1535.45,-860.45 1535.45,-860.45 1541.45,-860.45 1547.45,-866.45 1547.45,-872.45 1547.45,-872.45 1547.45,-890.95 1547.45,-890.95 1547.45,-896.95 1541.45,-902.95 1535.45,-902.95"/>
<text xml:space="preserve" text-anchor="middle" x="1468.25" y="-870.45" font-family="Arial" font-size="30.00" fill="white">Czech</text>
</g>
<!-- West Slavic&#45;&gt;Czech -->
<g id="edge57" class="edge">
<title>West Slavic&#45;&gt;Czech</title>
<path fill="none" stroke="#2c3e50" stroke-width="3" d="M1251.67,-928.61C1290.07,-920.29 1335.36,-910.48 1374.57,-901.99"/>
<polygon fill="#2c3e50" stroke="#2c3e50" stroke-width="3" points="1375.25,-905.42 1384.28,-899.88 1373.77,-898.58 1375.25,-905.42"/>
</g>
<!-- Serbo&#45;Croatian -->
<g id="node59" class="node">
<title>Serbo&#45;Croatian</title>
<path fill="#5d6d7e" stroke="black" d="M1565.13,-770.68C1565.13,-770.68 1371.38,-770.68 1371.38,-770.68 1365.38,-770.68 1359.38,-764.68 1359.38,-758.68 1359.38,-758.68 1359.38,-740.18 1359.38,-740.18 1359.38,-734.18 1365.38,-728.18 1371.38,-728.18 1371.38,-728.18 1565.13,-728.18 1565.13,-728.18 1571.13,-728.18 1577.13,-734.18 1577.13,-740.18 1577.13,-740.18 1577.13,-758.68 1577.13,-758.68 1577.13,-764.68 1571.13,-770.68 1565.13,-770.68"/>
<text xml:space="preserve" text-anchor="middle" x="1468.25" y="-738.18" font-family="Arial" font-size="30.00" fill="white">Serbo&#45;Croatian</text>
</g>
<!-- South Slavic&#45;&gt;Serbo&#45;Croatian -->
<g id="edge58" class="edge">
<title>South Slavic&#45;&gt;Serbo&#45;Croatian</title>
<path fill="none" stroke="#2c3e50" stroke-width="3" d="M1256.98,-795.19C1287.48,-788.58 1321.83,-781.14 1353.82,-774.21"/>
<polygon fill="#2c3e50" stroke="#2c3e50" stroke-width="3" points="1354.38,-777.67 1363.41,-772.14 1352.9,-770.83 1354.38,-777.67"/>
</g>
<!-- Bulgarian -->
<g id="node60" class="node">
<title>Bulgarian</title>
<path fill="#5d6d7e" stroke="black" d="M1535.45,-638.41C1535.45,-638.41 1401.05,-638.41 1401.05,-638.41 1395.05,-638.41 1389.05,-632.41 1389.05,-626.41 1389.05,-626.41 1389.05,-607.91 1389.05,-607.91 1389.05,-601.91 1395.05,-595.91 1401.05,-595.91 1401.05,-595.91 1535.45,-595.91 1535.45,-595.91 1541.45,-595.91 1547.45,-601.91 1547.45,-607.91 1547.45,-607.91 1547.45,-626.41 1547.45,-626.41 1547.45,-632.41 1541.45,-638.41 1535.45,-638.41"/>
<text xml:space="preserve" text-anchor="middle" x="1468.25" y="-605.91" font-family="Arial" font-size="30.00" fill="white">Bulgarian</text>
</g>
<!-- South Slavic&#45;&gt;Bulgarian -->
<g id="edge59" class="edge">
<title>South Slavic&#45;&gt;Bulgarian</title>
<path fill="none" stroke="#2c3e50" stroke-width="3" d="M1198.54,-793.31C1253.2,-757.62 1361.98,-686.57 1423.38,-646.47"/>
<polygon fill="#2c3e50" stroke="#2c3e50" stroke-width="3" points="1425.1,-649.52 1431.56,-641.12 1421.27,-643.66 1425.1,-649.52"/>
</g>
</g>
</svg>
